<svg width="98" height="21" viewBox="0 0 98 21" fill="none" xmlns="http://www.w3.org/2000/svg">
<g clip-path="url(#clip0_122_1366)">
<path d="M10.7154 9.93951H6.49219V11.9133H10.6139C10.8576 11.9133 11.0809 11.8147 11.2635 11.6567C11.426 11.4988 11.5275 11.262 11.5275 10.9659C11.5334 10.7118 11.455 10.4626 11.3041 10.2553C11.1416 10.0581 10.959 9.93951 10.7154 9.93951ZM10.8576 7.5514C11.0402 7.43284 11.1215 7.17629 11.1215 6.84076C11.1215 6.54463 11.0402 6.32766 10.8981 6.18949C10.7559 6.07093 10.5731 5.99213 10.3702 5.99213H6.49219V7.76837H10.2889C10.492 7.76837 10.6951 7.66978 10.8576 7.5514Z" fill="#09B3AF"/>
<path d="M17.0498 0.26825H1.11139C0.603979 0.26825 0.197754 0.66297 0.197754 1.13667V16.6504C0.197754 17.1241 0.603979 17.4202 1.09108 17.4202H3.44626V20.519L6.36997 17.44H17.0498C17.5371 17.44 17.8416 17.1439 17.8416 16.6504V1.15646C17.8416 0.68276 17.5369 0.28804 17.0295 0.28804L17.0498 0.26825ZM14.3696 12.841C14.1665 13.1963 13.8621 13.4923 13.4966 13.7096C13.1107 13.9464 12.6844 14.1635 12.1971 14.2621C11.7098 14.3807 11.1821 14.4793 10.6339 14.4793H3.44626V3.42619H11.6084C12.0145 3.42619 12.3596 3.50535 12.6844 3.68293C12.989 3.84071 13.2734 4.05786 13.4966 4.31441C13.9513 4.85327 14.1958 5.53145 14.1868 6.229C14.1868 6.7421 14.0447 7.23559 13.7808 7.70929C13.5069 8.186 13.0785 8.5608 12.5627 8.77507C13.2123 8.95282 13.7199 9.26856 14.1058 9.72248C14.4712 10.1962 14.6538 10.808 14.6538 11.5779C14.6538 12.0714 14.5523 12.4859 14.3493 12.841H14.3696Z" fill="#09B3AF"/>
<path d="M28.8461 14.4002C28.1356 14.4002 27.4452 14.3016 26.755 14.0845C26.1074 13.8806 25.512 13.5441 25.0088 13.0977L25.9224 11.5976C26.4302 11.9331 26.9173 12.1897 27.4046 12.3871C27.8403 12.571 28.3105 12.6651 28.7854 12.6634C29.1102 12.6634 29.374 12.6042 29.5568 12.4858C29.7396 12.3871 29.8209 12.2095 29.8209 11.9923C29.8209 11.795 29.7193 11.5976 29.4756 11.4792C29.094 11.3014 28.6918 11.1688 28.2778 11.0843L26.8566 10.6304C26.4706 10.4725 26.166 10.3147 25.9224 10.1369C25.6787 9.97915 25.4961 9.762 25.3947 9.54503C25.2841 9.29582 25.2288 9.0267 25.2322 8.75523C25.2265 8.37147 25.3092 7.99134 25.4744 7.6429C25.6395 7.29446 25.8829 6.98661 26.1865 6.74205C26.4708 6.50529 26.8362 6.32771 27.2423 6.18954C27.6483 6.05137 28.095 5.99218 28.562 5.99218C29.1914 5.99218 29.7803 6.07098 30.3283 6.22894C30.8767 6.40651 31.4044 6.70265 31.912 7.13695L30.9171 8.61724C30.5241 8.34384 30.1021 8.11224 29.6584 7.92639C29.2725 7.76843 28.9274 7.70924 28.562 7.70924C28.2979 7.70924 28.0544 7.74882 27.8716 7.8672C27.6685 7.96579 27.5874 8.14354 27.5874 8.3803C27.5874 8.61724 27.6889 8.77502 27.8921 8.89358C28.095 9.01196 28.501 9.13034 29.0493 9.26851C29.5582 9.3931 30.0597 9.54463 30.5517 9.72242C30.958 9.88038 31.2826 10.0581 31.5466 10.2357C31.792 10.4112 31.9878 10.6445 32.1156 10.9137C32.2434 11.1829 32.2991 11.4793 32.2774 11.7752C32.2774 12.5844 31.973 13.2161 31.3435 13.6898C30.7345 14.1635 29.9223 14.4002 28.8461 14.4002ZM38.8965 13.8279C38.5059 13.9833 38.1058 14.1152 37.6985 14.2227C37.2519 14.341 36.8052 14.42 36.3382 14.42C36.0132 14.42 35.7291 14.3804 35.4449 14.3016C35.1687 14.2234 34.9126 14.0888 34.6937 13.9069C34.4906 13.749 34.3281 13.5122 34.2063 13.2557C34.0844 12.9791 34.0032 12.6436 34.0032 12.2489V8.00537H32.9475V6.14996H34.0237V3.56431H36.5413V6.13017H38.2467V8.00537H36.5413V11.4003C36.5413 11.6568 36.6023 11.8542 36.7444 11.9923C36.8864 12.0911 37.0692 12.1503 37.2722 12.1503C37.4753 12.1503 37.6784 12.1305 37.861 12.0515C38.0641 11.9923 38.2469 11.9331 38.3889 11.8542L38.8762 13.8278L38.8965 13.8279ZM43.6475 14.4002C43.0015 14.4112 42.3597 14.2972 41.7593 14.0647C41.2373 13.8642 40.7648 13.5583 40.3729 13.1671C39.981 12.7759 39.6785 12.3082 39.4854 11.795C39.0865 10.7646 39.0865 9.62786 39.4854 8.59745C39.6785 8.08417 39.981 7.61656 40.3729 7.22536C40.7648 6.83415 41.2373 6.52823 41.7593 6.32771C42.3075 6.11056 42.937 5.99218 43.6475 5.99218C44.258 5.96411 44.8676 6.0641 45.4351 6.28541C46.0025 6.50671 46.5146 6.84416 46.9366 7.27494C47.3225 7.65005 47.6069 8.10396 47.8098 8.59745C48.2255 9.63166 48.2255 10.7806 47.8098 11.8148C47.6154 12.3219 47.3145 12.7839 46.9264 13.1713C46.5384 13.5587 46.0716 13.863 45.556 14.0647C44.9493 14.2998 44.3003 14.4139 43.6475 14.4002ZM41.8202 10.2159C41.8202 10.8474 41.9827 11.3607 42.3278 11.7358C42.6934 12.1305 43.1399 12.3279 43.6678 12.3279C43.9194 12.3327 44.1688 12.2819 44.3974 12.1793C44.6259 12.0768 44.8277 11.9251 44.9875 11.7358C45.1556 11.536 45.2863 11.3088 45.3734 11.0647C45.475 10.808 45.5156 10.512 45.5156 10.2159C45.5156 9.56464 45.3328 9.05136 44.9875 8.67643C44.6424 8.28171 44.1957 8.08435 43.6678 8.08435C43.4169 8.08371 43.1689 8.13633 42.941 8.23855C42.7131 8.34077 42.5108 8.49013 42.3481 8.67625C42.1856 8.87379 42.0435 9.07115 41.9419 9.34749C41.8504 9.62799 41.8093 9.92176 41.8202 10.2159ZM54.6724 8.26192C54.0631 8.26192 53.4948 8.36069 52.9872 8.55805C52.5406 8.70427 52.1601 8.9973 51.911 9.38689V14.2621H49.3732V6.14996H51.7081V7.76843C51.9925 7.21575 52.3577 6.78163 52.8247 6.48567C53.2715 6.16975 53.7385 6.01179 54.2461 5.99218H54.5099L54.6724 6.01197V8.26192ZM55.789 15.4662C56.1422 15.5855 56.5118 15.6521 56.8854 15.6636C57.1901 15.6636 57.4337 15.5648 57.6165 15.3674C57.7789 15.1701 57.9209 14.7753 58.0631 14.2621L54.8957 6.14996H57.5149L59.4437 12.1305L61.1288 6.14996H63.5045L60.3167 15.5648C59.8167 17.164 58.1405 18.1245 56.4591 17.7755C56.256 17.7359 56.0122 17.6767 55.789 17.5782V15.4662ZM69.5142 14.4002C68.885 14.4002 68.3164 14.2819 67.8494 14.0055C67.3752 13.7524 66.9818 13.3768 66.7124 12.9199V14.2621H64.4996V2.97223H67.0577V7.47248C67.3308 7.00854 67.7283 6.62571 68.2075 6.36496C68.6868 6.1042 69.2298 5.97535 69.7785 5.99218C70.3064 5.99218 70.7937 6.09077 71.2403 6.32771C71.687 6.52507 72.0524 6.84082 72.3975 7.21575C72.8901 7.87991 73.2133 8.6488 73.3405 9.45882C73.4676 10.2688 73.3949 11.0967 73.1285 11.874C72.9254 12.3871 72.6412 12.841 72.2961 13.2161C71.9432 13.592 71.5133 13.8916 71.0341 14.0955C70.555 14.2995 70.0371 14.4033 69.5142 14.4002ZM68.8037 12.3279C69.6278 12.3297 70.3621 11.822 70.631 11.0647C70.9286 10.2695 70.7828 9.38077 70.2451 8.71583C70.0883 8.51543 69.8854 8.35382 69.6526 8.24411C69.4198 8.1344 69.1638 8.07967 68.9053 8.08435C68.5193 8.08435 68.1539 8.22252 67.8088 8.47907C67.4838 8.75541 67.22 9.09076 67.0372 9.50545V11.2029C67.1982 11.5322 67.4512 11.8106 67.7673 12.0061C68.0834 12.2016 68.4496 12.3063 68.824 12.3081L68.8037 12.3279ZM74.6511 2.97223H77.1891V11.3607C77.1891 11.9923 77.4532 12.2885 78.0012 12.2885C78.291 12.2893 78.5766 12.2216 78.8336 12.0911L79.1789 13.9265C78.4676 14.2294 77.7012 14.3904 76.9251 14.4002C76.1942 14.4002 75.6257 14.2029 75.24 13.8477C74.8338 13.4528 74.6306 12.9397 74.6306 12.2291V2.97223H74.6511ZM83.9703 14.4002C83.3244 14.4112 82.6826 14.2971 82.0823 14.0647C81.5572 13.8654 81.0813 13.5602 80.6858 13.169C80.2904 12.7778 79.9844 12.3096 79.7878 11.795C79.4996 11.0332 79.4267 10.21 79.5767 9.41144C79.7268 8.61285 80.0942 7.8682 80.6407 7.25533C81.0468 6.86061 81.4934 6.56447 82.062 6.32771C82.6102 6.11056 83.2395 5.99218 83.9502 5.99218C84.5607 5.96411 85.1703 6.0641 85.7378 6.28541C86.3052 6.50671 86.8173 6.84416 87.2393 7.27494C87.6455 7.65005 87.9094 8.10396 88.1123 8.59745C88.4117 9.35747 88.4905 10.1831 88.3401 10.9839C88.1896 11.7847 87.8158 12.5296 87.2596 13.1371C86.8622 13.545 86.3768 13.8619 85.8384 14.0647C85.238 14.2972 84.5962 14.4112 83.9502 14.4002H83.9705H83.9703ZM82.1229 10.2159C82.1229 10.8474 82.2854 11.3607 82.6305 11.7358C82.9959 12.1305 83.4426 12.3279 83.9705 12.3279C84.2218 12.3312 84.4708 12.2798 84.6991 12.1774C84.9274 12.0749 85.1294 11.924 85.2902 11.7358C85.4583 11.536 85.589 11.3088 85.6761 11.0647C85.7776 10.808 85.8181 10.512 85.8181 10.2159C85.8181 9.56464 85.6353 9.05136 85.2902 8.67643C84.9449 8.28171 84.4984 8.08435 83.9705 8.08435C83.7196 8.08368 83.4715 8.13629 83.2436 8.23851C83.0156 8.34073 82.8133 8.49011 82.6506 8.67625C82.4881 8.87379 82.3461 9.07115 82.2446 9.34749C82.143 9.62383 82.1227 9.90017 82.1227 10.2159H82.1229ZM95.2999 14.2621L93.1273 10.9857L92.234 11.8936V14.2621H89.696V2.97223H92.234V9.50545L95.0562 6.15014H97.7566L94.7517 9.64362L98.0002 14.2621H95.2999Z" fill="white"/>
</g>
<defs>
<clipPath id="clip0_122_1366">
<rect width="97.8023" height="20.5069" fill="white" transform="translate(0.197754 0.140259)"/>
</clipPath>
</defs>
</svg>
