<?xml version="1.0" encoding="utf-8"?>
<!-- Generator: Adobe Illustrator 24.0.2, SVG Export Plug-In . SVG Version: 6.00 Build 0)  -->
<svg version="1.1" id="Layer_1" xmlns="http://www.w3.org/2000/svg" xmlns:xlink="http://www.w3.org/1999/xlink" x="0px" y="0px"
	 viewBox="0 0 1917 1080" style="enable-background:new 0 0 1917 1080;" xml:space="preserve">
<style type="text/css">
	.st0{fill:none;}
	.st1{fill:#FFFFFF;}
	.st2{fill:#16192E;}
	.st3{opacity:0.5;fill:url(#SVGID_1_);enable-background:new    ;}
</style>
<pattern  y="1080" width="800" height="800" patternUnits="userSpaceOnUse" id="SVGID_90_" viewBox="0 -800 800 800" style="overflow:visible;">
	<g>
		<rect y="-800" class="st0" width="800" height="800"/>
		<g>
			<rect y="-800" class="st0" width="800" height="800"/>
			<g>
				<rect y="-800" class="st0" width="800" height="800"/>
				<g id="_x35_Sun0g.tif_2_">
					<g>
						<path d="M55.88-49.66c2.21,0.6,4.39,1.27,6.98,2.03C58.69-32.04,54.63-16.86,50.5-1.46c-2.27,0-4.35,0-6.98,0
							c3.2-12.15,6.34-24.09,9.84-37.36C34.85-30.18,17.52-22.08,0.18-13.98c0,4.66,0,9.32,0,13.98c266.6,0,533.21,0,799.81,0
							c0-265.16,0-530.31,0-795.47c0-1.33,0.04-2.67-0.04-3.99c-0.01-0.19-0.62-0.34-0.95-0.5c-0.11,2.25-0.23,4.5-0.41,8.12
							c-2.32-3.37-3.95-5.75-5.58-8.12c-19.97,0-39.94,0-59.91,0c-6.44,3.32-12.88,6.64-19.33,9.95c-1.89,0.97-3.8,1.88-7,3.46
							c2.91,0.9,4.64,1.51,6.41,1.98c26.78,7.2,53.53,14.51,80.37,21.47c4.76,1.23,6.53,3.15,4.63,8.4
							c-35.13-9.42-70.32-18.85-105.61-28.31c1.28-6.01,2.44-11.48,3.6-16.94c-38.28,0-76.55,0-114.83,0
							c15.87,22.79,31.74,45.57,48.11,69.08c-40.92,28.67-81.8,57.31-123.14,86.27c-20.61-29.43-40.98-58.52-61.66-88.05
							c6.75-4.77,13.21-9.38,19.7-13.93c23.97-16.79,47.96-33.56,71.92-50.38c1.17-0.82,2.09-1.99,3.13-3
							c-75.55,0-151.11,0-226.66,0c-8.76,11.59-17.51,23.18-26.56,35.16c-6.99-5.44-13.52-10.46-19.98-15.58
							c-8.16-6.48-16.24-13.05-24.36-19.58c-63.91,0-127.81,0-191.72,0c-4.72,18.15-9.45,36.3-14.25,54.77
							c-12.26-3.04-23.97-5.93-35.67-8.83c0,73.57,0,147.14,0,220.71c7.62,19.42,15.24,38.84,23.16,59
							c-7.86,3.03-15.51,5.97-23.16,8.91c0,50.93,0,101.87,0,152.8c6.64-10.71,13.34-21.39,19.91-32.15
							c6.15-10.06,12.16-20.21,18.58-30.89c54.03,32.47,107.83,64.79,162.11,97.4c-23.27,38.73-46.34,77.13-69.66,115.95
							c-11-6.6-21.53-12.91-32.04-19.23c-32.08-19.27-64.15-38.55-96.24-57.82c-0.85-0.51-1.77-0.91-2.65-1.37
							c0,58.59,0,117.18,0,175.77C18.75-59.83,37.31-54.75,55.88-49.66z M178.59-691.65c52.62,34.27,104.8,68.26,157.4,102.51
							c-24.48,37.61-48.74,74.88-73.3,112.59c-52.56-34.23-104.73-68.21-157.39-102.5C129.96-616.93,154.15-654.09,178.59-691.65z
							 M548.2-422.57c-46.32,38.08-92.45,76.01-138.95,114.24c-27.33-33.29-54.36-66.24-81.61-99.44
							c46.37-38.11,92.44-75.96,138.91-114.15C494.02-488.51,520.92-455.76,548.2-422.57z M677.41-135.24
							c-42.11,5.56-83.68,11.04-125.67,16.58c-7.76-58.82-15.43-116.95-23.19-175.73c41.84-5.53,83.3-11.01,125.66-16.61
							C661.99-252.13,669.66-194,677.41-135.24z M325.16-91.52c-5.7,1.17-11.45,2.14-17.06,3.65c-1.31,0.35-2.97,2.5-3.03,3.88
							c-0.2,4.3,0.18,8.64,0.55,12.95c0.27,3.06-0.75,4.59-3.93,5.02c-3.78,0.5-7.49,1.61-11.27,2.13c-3.62,0.5-4.89,2.05-4.68,5.88
							c0.94,17.28,1.57,34.58,2.3,51.87c0.06,1.46,0.01,2.92,0.01,4.67c-2.65,0-5.07,0-8.32,0c-0.88-19.55-1.76-39.21-2.68-59.6
							c-26.11,5.32-51.53,10.5-78.32,15.96c19.06,14.92,36.97,28.93,54.98,43.02c-6.75,2.14-12.55,1.2-17.43-2.63
							c-16.75-13.14-33.52-26.26-50.27-39.4c-1.02-0.8-1.96-1.69-3.28-2.83c37.58-48.12,75.02-96.04,112.77-144.37
							c34.51,26.96,68.69,53.65,103.31,80.69c-4.46,5.81-8.73,11.46-13.08,17.04C363.41-65,340.92-36.55,318.88-7.75
							c-4.16,5.44-8.39,8-15.85,5.97c26.06-33.41,52.02-66.69,77.98-99.96c-0.25-0.35-0.5-0.71-0.75-1.06
							C361.89-99.04,343.53-95.28,325.16-91.52z M739.5-513.76c-8.42,23.89-16.66,47.25-25.44,72.16
							c28.94-11.1,56.42-21.64,83.96-32.2c1.88,7.98,1.79,8.13-5.11,10.78c-27.78,10.66-55.57,21.34-83.35,32
							c-1.37,0.53-2.77,1-4.8,1.73c-20.97-54.62-41.84-108.99-62.88-163.82c39.24-15.07,77.96-29.94,117.16-45
							c4.34,11.2,8.55,21.99,12.71,32.81c8.71,22.66,17.91,45.15,25.8,68.09c2.42,7.04,1.24,15.31,1.71,23.02
							c-0.43,0.09-0.86,0.17-1.3,0.26c-13.46-35.04-26.92-70.07-40.39-105.11c-0.43,0.02-0.86,0.03-1.29,0.05
							c-1.92,5.39-3.84,10.78-5.75,16.17c-7.94,22.41-15.78,44.85-23.89,67.2c-1.3,3.59-0.65,5.21,2.68,6.99
							c20.98,11.2,41.72,22.85,62.82,33.8c5.65,2.93,8.06,6.23,6.16,12.93C778.7-492.51,759.45-502.94,739.5-513.76z M798.64-20.86
							c0.21,3.94,1.39,7.76-3.88,9.24c1.61,3.35,3.09,6.45,4.6,9.6c-4.84,2.06-7.19,0.2-9.33-3.15
							c-3.56-5.58-7.47-10.95-11.48-16.76c-11.19,5.33-22.32,10.13-32.96,15.86c-7.81,4.21-15.72,5.87-25.4,4.42
							c13.37-6.42,26.06-12.5,39.58-18.99c-12.05-17.51-23.85-34.63-36.39-52.85c-1.6,5.58-2.9,9.94-4.08,14.33
							c-4.75,17.66-9.62,35.29-14.06,53.02c-1.19,4.74-3.37,5.91-8.3,4.31c7.45-27.84,14.91-55.69,22.51-84.08
							c26.57,7.11,52.8,14.14,79.15,21.2c0,2.27,0,4.22,0,7.01c-22.41-5.96-44.54-11.85-66.67-17.74c-0.23,0.34-0.46,0.68-0.69,1.02
							c0.84,1.33,1.63,2.7,2.53,4c9.91,14.37,19.93,28.67,29.67,43.16c2.04,3.04,3.65,3.28,6.81,1.73
							c10.57-5.16,10.63-5.02,17.33,4.6c0.75,1.08,1.57,2.11,2.66,3.56C793.18-18.57,795.74-19.65,798.64-20.86z M798.54-269.69
							c0,3,0,5.6,0,8.65c-3.26,0.69-6.58,1.39-10.92,2.31c5.54,4.9,15.53,6.37,10.21,17.06c-9.61-5.77-19.58-11.76-30.01-18.02
							c10.14-16.89,20.03-33.35,29.92-49.8c0.33,6.73,2.89,13.36-1.42,19.8c-4.58,6.84-8.47,14.14-13.25,22.24
							C788.89-268.3,793.55-268.97,798.54-269.69z M568.32-4.32c-0.68,3.59-3.99,3.77-8.09,2.77c0-1.19,0-2.43,0-2.78
							c-5.79,1.37-11.55,2.73-17.32,4.1c-0.22-0.63-0.45-1.27-0.67-1.9C550.6-7.97,558.95-13.81,567.8-20
							c4.3,6.13,8.45,12.03,12.59,17.93c-0.28,0.62-0.56,1.24-0.85,1.85C575.85-1.57,572.15-2.92,568.32-4.32z"/>
						<path class="st1" d="M0.18-295.62c1.02-1.24,2.21-2.37,3.03-3.73c10.84-17.92,21.62-35.88,32.42-53.82
							c0.9-1.49,1.88-2.94,3.5-5.45c8.88,26.41,17.38,51.68,26.11,77.64c-22.05,3.84-43.55,7.58-65.06,11.32c0,3,0,5.99,0,8.99
							c23.73-4.03,47.46-8.06,71.19-12.09c4.75-0.81,9.48-1.81,14.27-2.23c1.37-0.12,3.79,1.21,4.2,2.39
							c10.23,30.02,20.26,60.1,30.3,90.19c0.24,0.72,0.21,1.53,0.44,3.38c-9.41-5.66-18.03-10.85-26.65-16.02
							c-29.9-17.95-59.8-35.9-89.72-53.82c-1.25-0.75-2.68-1.21-4.03-1.81c0,3.33,0,6.66,0,9.99c0.89,0.45,1.8,0.86,2.65,1.37
							c32.08,19.27,64.16,38.55,96.24,57.82c10.52,6.32,21.04,12.63,32.04,19.23c23.32-38.82,46.39-77.22,69.66-115.95
							c-54.27-32.61-108.07-64.93-162.11-97.4c-6.42,10.68-12.43,20.82-18.58,30.89c-6.57,10.76-13.27,21.43-19.91,32.15
							C0.18-306.94,0.18-301.28,0.18-295.62z M130.51-270.58c-8.36,1.39-16.73,2.67-25.06,4.19c-2.85,0.52-4.24-0.18-5.03-3.06
							c-1.19-4.32-2.99-8.47-4.17-12.79c-0.8-2.93-2.32-3.6-5.09-3.02c-4.39,0.91-8.85,1.48-13.24,2.41
							c-2.57,0.54-3.97-0.09-4.84-2.7c-7.86-23.64-15.81-47.25-23.72-70.88c-0.14-0.42-0.02-0.93-0.02-2.4
							c43.95,26.43,87.35,52.53,130.75,78.62c-0.16,0.49-0.32,0.97-0.47,1.46C163.24-276.02,146.88-273.3,130.51-270.58z
							 M104.57-257.19c26.93-4.47,53.34-8.86,81.24-13.49c-18.57,30.93-36.39,60.61-55.06,91.7
							C121.8-205.71,113.34-230.99,104.57-257.19z"/>
						<path class="st1" d="M573.33-799.96c4.66,7.01,9.22,14.1,14.02,21.02c8.97,12.96,18.08,25.83,27.11,38.76
							c0.72,1.03,1.23,2.21,2.29,4.14c-21.89-2.1-42.92-4.13-64.43-6.19c0.27-1.71,0.37-2.97,0.68-4.18
							c4.18-16.23,8.4-32.45,12.57-48.68c0.41-1.58,0.52-3.24,0.77-4.87c-2.33,0-4.66,0-6.99,0c-4.6,18.02-9.14,36.06-13.92,54.03
							c-0.31,1.17-2.39,2.55-3.71,2.62c-2.95,0.16-6.01-0.16-8.91-0.8c-3.97-0.88-5.18,1.06-6.06,4.44
							c-3.02,11.64-3.08,11.45-15.18,10.18c-15.21-1.6-30.44-2.91-45.67-4.35c-1.56-0.15-3.12-0.39-6.2-0.78
							c2.87-2.11,4.52-3.36,6.21-4.54c28.04-19.65,56.09-39.29,84.13-58.95c0.81-0.57,1.55-1.23,2.32-1.85c-4.33,0-8.65,0-12.98,0
							c-1.04,1.01-1.96,2.18-3.13,3c-23.96,16.81-47.94,33.58-71.92,50.38c-6.5,4.55-12.96,9.16-19.7,13.93
							c20.68,29.53,41.05,58.63,61.66,88.05c41.34-28.96,82.22-57.61,123.14-86.27c-16.37-23.51-32.24-46.3-48.11-69.08
							C578.65-799.96,575.99-799.96,573.33-799.96z M513.51-658.21c0.42-2.63,0.53-4.01,0.87-5.33
							c5.97-23.16,11.99-46.32,17.94-69.49c0.64-2.49,1.33-4.09,4.57-3.77c23.8,2.41,47.63,4.62,71.44,6.92
							c1.47,0.14,2.91,0.51,5.98,1.06C580.26-704.96,547.41-681.96,513.51-658.21z M505.66-657.76
							c-16.55-23.61-32.27-46.03-48.98-69.87c22.57,2.12,43.6,4.09,65.45,6.15C516.63-700.17,511.36-679.79,505.66-657.76z"/>
						<path d="M0.18-260.66c23.73-4.03,47.46-8.06,71.19-12.09c4.75-0.81,9.48-1.81,14.27-2.23c1.37-0.12,3.79,1.21,4.2,2.39
							c10.23,30.02,20.26,60.1,30.3,90.19c0.24,0.72,0.21,1.53,0.44,3.38c-9.41-5.66-18.03-10.85-26.65-16.02
							c-29.9-17.95-59.8-35.9-89.72-53.82c-1.25-0.75-2.68-1.21-4.03-1.81C0.18-254,0.18-257.33,0.18-260.66z"/>
						<path d="M0.18-295.62c1.02-1.24,2.21-2.37,3.03-3.73c10.84-17.92,21.62-35.88,32.42-53.82c0.9-1.49,1.88-2.94,3.5-5.45
							c8.88,26.41,17.38,51.68,26.11,77.64c-22.05,3.84-43.55,7.58-65.06,11.32C0.18-278.31,0.18-286.96,0.18-295.62z"/>
						<path d="M559.35-799.96c-4.6,18.02-9.14,36.06-13.92,54.03c-0.31,1.17-2.39,2.55-3.71,2.62c-2.95,0.16-6.01-0.16-8.91-0.8
							c-3.97-0.88-5.18,1.06-6.06,4.44c-3.02,11.64-3.08,11.45-15.18,10.18c-15.21-1.6-30.44-2.91-45.67-4.35
							c-1.56-0.15-3.12-0.39-6.2-0.78c2.87-2.11,4.52-3.36,6.21-4.54c28.04-19.65,56.09-39.29,84.13-58.95
							c0.81-0.57,1.55-1.23,2.32-1.85C554.69-799.96,557.02-799.96,559.35-799.96z"/>
						<path d="M573.33-799.96c4.66,7.01,9.22,14.1,14.02,21.02c8.97,12.96,18.08,25.83,27.11,38.76c0.72,1.03,1.23,2.21,2.29,4.14
							c-21.89-2.1-42.92-4.13-64.43-6.19c0.27-1.71,0.37-2.97,0.68-4.18c4.18-16.23,8.4-32.45,12.57-48.68
							c0.41-1.58,0.52-3.24,0.77-4.87C568.67-799.96,571-799.96,573.33-799.96z"/>
						<path class="st1" d="M0.18-64.92c18.57,5.09,37.13,10.17,55.7,15.26c2.21,0.6,4.39,1.27,6.98,2.03
							C58.69-32.04,54.63-16.86,50.5-1.46c-2.27,0-4.35,0-6.98,0c3.2-12.15,6.34-24.09,9.84-37.36
							C34.85-30.18,17.52-22.08,0.18-13.98c0-2.66,0-5.33,0-7.99c0.64-0.09,1.35-0.03,1.91-0.3c14.58-6.89,29.14-13.81,43.69-20.76
							c0.49-0.23,0.79-0.88,1.58-1.81c-9.46-2.53-18.41-4.99-27.4-7.31c-6.57-1.69-13.18-3.2-19.78-4.79
							C0.18-59.59,0.18-62.25,0.18-64.92z"/>
						<path class="st1" d="M733.09-799.96c-6.44,3.32-12.88,6.64-19.33,9.95c-1.89,0.97-3.8,1.88-7,3.46
							c2.91,0.9,4.64,1.51,6.41,1.98c26.78,7.2,53.53,14.51,80.37,21.47c4.76,1.23,6.53,3.15,4.63,8.4
							c-35.13-9.42-70.32-18.85-105.61-28.31c1.28-6.01,2.44-11.48,3.6-16.94c2.66,0,5.33,0,7.99,0c-0.7,2.26-1.4,4.52-2.11,6.79
							c0.35,0.31,0.69,0.62,1.04,0.93c4.68-2.57,9.37-5.15,14.05-7.72C722.44-799.96,727.76-799.96,733.09-799.96z"/>
						<path class="st1" d="M50.11-799.96c-4.72,18.15-9.45,36.3-14.25,54.77c-12.26-3.04-23.97-5.93-35.67-8.83
							c0-2.33,0-4.66,0-6.99c7.8,1.78,15.6,3.57,24.56,5.62c-6.04-8.82-11.36-16.72-16.83-24.52c-2.43-3.46-5.15-6.72-7.73-10.06
							c0-2.5,0.34-5.05-0.08-7.48c-0.55-3.17,1.43-2.46,3.08-2.51c0.29,0.75,0.45,1.6,0.89,2.25c8.6,12.57,17.22,25.13,25.87,37.67
							c0.4,0.59,1.11,0.96,2.26,1.92c3.74-14.35,7.33-28.09,10.91-41.83C45.45-799.96,47.78-799.96,50.11-799.96z"/>
						<path class="st1" d="M312.72-799.96c-8.76,11.59-17.51,23.18-26.56,35.16c-6.99-5.44-13.52-10.46-19.98-15.58
							c-8.16-6.48-16.24-13.05-24.36-19.58c4.66,0,9.32,0,13.98,0c7.81,6.34,15.62,12.68,23.96,19.45c0-7.32,0-13.39,0-19.45
							c3,0,5.99,0,8.99,0c0,5.01,0,10.01,0,15.02c0.52,0.19,1.05,0.38,1.57,0.58c3.8-5.2,7.61-10.4,11.41-15.6
							C305.39-799.96,309.05-799.96,312.72-799.96z"/>
						<path d="M0.18-56.93c6.59,1.59,13.21,3.09,19.78,4.79c8.99,2.32,17.94,4.78,27.4,7.31c-0.8,0.93-1.09,1.57-1.58,1.81
							C31.23-36.08,16.67-29.16,2.09-22.27c-0.56,0.26-1.27,0.2-1.91,0.3C0.18-33.62,0.18-45.27,0.18-56.93z"/>
						<path d="M43.12-799.96c-3.59,13.74-7.17,27.49-10.91,41.83c-1.15-0.96-1.86-1.33-2.26-1.92
							c-8.65-12.54-17.28-25.09-25.87-37.67c-0.44-0.65-0.6-1.49-0.89-2.25C16.49-799.96,29.8-799.96,43.12-799.96z"/>
						<path class="st1" d="M0.18-533.31c7.62,19.42,15.24,38.84,23.16,59c-7.86,3.03-15.51,5.97-23.16,8.91c0-3,0-5.99,0-8.99
							c2.18-0.84,4.37-1.67,7.66-2.93c-3.35-1.78-5.51-2.92-7.66-4.06c0-3,0-5.99,0-8.99c2.78,1.21,5.56,2.41,8.35,3.62
							c0.33-0.24,0.67-0.48,1-0.71c-3.11-7.29-6.23-14.59-9.34-21.88C0.18-517.33,0.18-525.32,0.18-533.31z"/>
						<path d="M0.18-789.98c2.59,3.35,5.31,6.6,7.73,10.06c5.47,7.8,10.79,15.7,16.83,24.52c-8.96-2.05-16.76-3.83-24.56-5.62
							C0.18-770.67,0.18-780.32,0.18-789.98z"/>
						<path d="M279.76-799.96c0,6.07,0,12.13,0,19.45c-8.34-6.77-16.15-13.11-23.96-19.45
							C263.79-799.96,271.78-799.96,279.76-799.96z"/>
						<path d="M301.73-799.96c-3.8,5.2-7.61,10.4-11.41,15.6c-0.52-0.19-1.05-0.38-1.57-0.58c0-5.01,0-10.01,0-15.02
							C293.08-799.96,297.4-799.96,301.73-799.96z"/>
						<path d="M0.18-509.34c3.11,7.29,6.23,14.59,9.34,21.88c-0.33,0.24-0.67,0.48-1,0.71c-2.78-1.21-5.56-2.41-8.35-3.62
							C0.18-496.69,0.18-503.02,0.18-509.34z"/>
						<path d="M717.11-799.96c-4.68,2.57-9.37,5.15-14.05,7.72c-0.35-0.31-0.69-0.62-1.04-0.93c0.7-2.26,1.4-4.52,2.11-6.79
							C708.46-799.96,712.79-799.96,717.11-799.96z"/>
						<path d="M0.18-481.38c2.15,1.14,4.31,2.28,7.66,4.06c-3.29,1.26-5.48,2.09-7.66,2.93C0.18-476.72,0.18-479.05,0.18-481.38z"/>
						<path class="st1" d="M798.99-799.96c-0.11,2.25-0.23,4.5-0.41,8.12c-2.32-3.37-3.95-5.75-5.58-8.12
							C795-799.96,797-799.96,798.99-799.96z"/>
						<path class="st1" d="M262.69-476.54c24.55-37.72,48.82-74.99,73.3-112.59c-52.6-34.26-104.78-68.25-157.4-102.51
							c-24.44,37.55-48.62,74.72-73.28,112.61C157.96-544.74,210.14-510.77,262.69-476.54z M124.24-577.3
							c4.74-0.72,7.92-1.27,11.12-1.69c28.51-3.73,57.02-7.42,85.53-11.19c2.67-0.35,4.23,0.04,5.11,3.05
							c8.81,30.14,17.77,60.24,26.67,90.36c0.17,0.59,0.09,1.26,0.2,3.23C209.82-521.57,167.7-549,124.24-577.3z M315.6-591.83
							c-0.07,0.42-0.13,0.84-0.2,1.26c-4.65,0.64-9.3,1.3-13.96,1.91c-19.95,2.57-39.92,5.02-59.84,7.79
							c-3.69,0.51-5.06-0.64-5.8-3.98c-0.83-3.73-2.34-7.31-3.05-11.05c-0.74-3.89-2.81-4.75-6.32-3.97
							c-1.94,0.43-3.95,0.58-5.93,0.81c-10.02,1.16-10.01,1.15-12.82-8.34c-6.09-20.56-12.2-41.12-18.29-61.68
							c-0.41-1.4-0.72-2.82-1.08-4.24c0.31-0.26,0.61-0.53,0.92-0.79C231.36-646.68,273.48-619.26,315.6-591.83z M178.36-675.01
							c7.94,26.8,15.49,52.24,23.25,78.44c-27.01,3.53-53.28,6.95-81.17,10.59C140.02-616.08,158.74-644.86,178.36-675.01z
							 M239.76-571.71c26.82-3.47,53.2-6.88,81.13-10.5c-19.62,30.14-38.39,58.98-57.93,89
							C255.04-519.98,247.53-545.4,239.76-571.71z"/>
						<path class="st1" d="M327.65-407.77c27.25,33.2,54.28,66.14,81.61,99.44c46.5-38.23,92.63-76.15,138.95-114.24
							c-27.28-33.2-54.19-65.94-81.65-99.35C420.08-483.73,374.02-445.87,327.65-407.77z M420.31-348.9
							c4.01-22.55,8.08-45.08,12-67.64c0.5-2.89,1.26-4.36,4.63-4.29c29.58,0.61,59.16,1.05,88.74,1.57
							c1.06,0.02,2.11,0.43,4.22,0.88c-37.97,31.19-75.2,61.78-112.43,92.36c-0.36-0.2-0.71-0.4-1.07-0.6
							C417.7-334.04,418.99-341.47,420.31-348.9z M458.18-504.09c0.37,0.18,0.74,0.35,1.11,0.53c-0.9,5.4-1.75,10.81-2.72,16.2
							c-3.23,17.98-6.61,35.94-9.66,53.95c-0.58,3.42-1.88,4.47-5.15,4.21c-3.47-0.28-7,0.12-10.46-0.25
							c-3.85-0.42-6.09,0.62-6.11,4.81c0,0.32-0.14,0.65-0.22,0.97c-1.01,4.48-0.62,10.74-3.41,12.94c-2.88,2.27-8.87,0.67-13.5,0.6
							c-18.28-0.29-36.55-0.64-54.82-0.97c-1.96-0.03-3.91,0-5.87,0c-0.19-0.49-0.38-0.97-0.57-1.46
							C383.93-443.07,421.05-473.58,458.18-504.09z M454.62-428.49c4.68-26.18,9.15-51.21,13.9-77.74
							c21.84,26.59,42.73,52.03,63.85,77.74C506.23-428.49,481.02-428.49,454.62-428.49z M343.45-401.76c26.07,0,51.35,0,77.65,0
							c-4.64,26.04-9.09,51.05-13.83,77.68C385.44-350.66,364.57-376.05,343.45-401.76z"/>
						<path class="st1" d="M528.56-294.39c7.76,58.79,15.43,116.91,23.19,175.73c41.99-5.54,83.56-11.03,125.67-16.58
							C669.66-194,661.99-252.13,654.22-311C611.86-305.4,570.39-299.92,528.56-294.39z M543.59-275.89
							c21.14,19.01,42.26,38.05,63.42,57.04c2,1.79,3.46,3.08,1.46,6.12c-16.15,24.6-32.12,49.32-48.16,73.99
							c-0.43,0.66-1.06,1.19-2.46,2.73c-6.33-48.01-12.53-95-18.73-142c0.37-0.19,0.73-0.37,1.1-0.56
							C541.35-277.67,542.52-276.84,543.59-275.89z M642.07-172.11c-9.25-8.35-18.36-16.86-27.81-24.97
							c-3.29-2.82-3.4-4.88-0.9-8.17c2.8-3.68,5.05-7.77,7.73-11.98c-4.11-3.73-8.18-7.14-11.84-10.94
							c-0.98-1.01-1.55-3.76-0.89-4.8c12.46-19.63,25.14-39.13,37.79-58.65c0.25-0.39,0.71-0.65,1.99-1.77
							c6.3,47.77,12.51,94.81,18.71,141.85c-0.41,0.22-0.82,0.44-1.23,0.67C657.77-157.96,649.92-165.03,642.07-172.11z
							 M563.79-128.66c14.38-22.19,28.05-43.26,42.08-64.9c19.04,17.19,37.6,33.95,56.17,50.71c-0.17,0.44-0.34,0.87-0.51,1.31
							C629.45-137.32,597.37-133.09,563.79-128.66z M642.18-301c-14.29,22.12-27.81,43.06-41.9,64.88
							c-18.96-17.05-37.63-33.83-56.3-50.62c0.13-0.45,0.25-0.89,0.38-1.34C576.41-292.32,608.46-296.55,642.18-301z"/>
						<path class="st1" d="M381.02-101.74c-25.96,33.28-51.92,66.56-77.98,99.96c7.46,2.03,11.69-0.54,15.85-5.97
							c22.03-28.8,44.53-57.25,66.84-85.84c4.36-5.58,8.63-11.23,13.08-17.04c-34.62-27.04-68.8-53.73-103.31-80.69
							c-37.75,48.33-75.18,96.25-112.77,144.37c1.32,1.14,2.26,2.03,3.28,2.83c16.75,13.14,33.52,26.26,50.27,39.4
							c4.88,3.82,10.68,4.77,17.43,2.63c-18.01-14.09-35.91-28.1-54.98-43.02c26.79-5.46,52.21-10.64,78.32-15.96
							c0.92,20.39,1.8,40.05,2.68,59.6c3.25,0,5.67,0,8.32,0c0-1.75,0.05-3.21-0.01-4.67c-0.73-17.29-1.35-34.59-2.3-51.87
							c-0.21-3.83,1.05-5.38,4.68-5.88c3.78-0.52,7.49-1.63,11.27-2.13c3.18-0.42,4.2-1.95,3.93-5.02
							c-0.38-4.31-0.75-8.65-0.55-12.95c0.06-1.39,1.72-3.53,3.03-3.88c5.61-1.51,11.36-2.48,17.06-3.65
							c18.37-3.76,36.74-7.52,55.1-11.28C380.51-102.45,380.76-102.09,381.02-101.74z M293.56-149.38
							c1.05,23.58,2.03,47.16,3.13,70.74c0.14,3.02-0.2,4.91-3.76,5.62c-29.96,5.98-59.9,12.12-89.84,18.2
							c-0.61,0.12-1.27,0.02-3.22,0.02c30.83-39.49,61.07-78.22,91.31-116.95c0.43,0.21,0.86,0.42,1.3,0.63
							C292.84-163.89,293.24-156.64,293.56-149.38z M304.47-96.12c-1.15-26.56-2.27-52.39-3.46-79.9
							c27.56,21.51,54.01,42.15,80.45,62.78c-0.07,0.47-0.15,0.94-0.22,1.41C355.94-106.66,330.64-101.48,304.47-96.12z"/>
						<path class="st1" d="M792.13-494.82c-21.1-10.95-41.84-22.6-62.82-33.8c-3.33-1.78-3.98-3.4-2.68-6.99
							c8.11-22.35,15.95-44.79,23.89-67.2c1.91-5.39,3.84-10.78,5.75-16.17c0.43-0.02,0.86-0.03,1.29-0.05
							c13.46,35.04,26.92,70.07,40.39,105.11c0.43-0.09,0.86-0.17,1.3-0.26c-0.47-7.71,0.71-15.99-1.71-23.02
							c-7.89-22.94-17.08-45.44-25.8-68.09c-4.16-10.82-8.37-21.61-12.71-32.81c-39.2,15.05-77.92,29.93-117.16,45
							c21.04,54.82,41.92,109.2,62.88,163.82c2.03-0.73,3.43-1.2,4.8-1.73c27.78-10.66,55.57-21.34,83.35-32
							c6.9-2.65,6.99-2.8,5.11-10.78c-27.53,10.56-55.02,21.1-83.96,32.2c8.78-24.91,17.02-48.27,25.44-72.16
							c19.96,10.82,39.2,21.25,58.79,31.86C800.18-488.6,797.77-491.89,792.13-494.82z M655.81-579.87c0.3-0.3,0.61-0.6,0.91-0.9
							c4,2.15,8,4.27,11.98,6.44c16.35,8.9,32.66,17.89,49.09,26.64c3.05,1.62,3.53,3.25,2.32,6.27c-1.85,4.59-3.36,9.32-5.11,14.24
							c5.86,3.24,11.35,6.28,17.1,9.46c-8.22,23.3-16.31,46.26-24.41,69.23c-0.48,0.04-0.96,0.07-1.43,0.11
							C689.45-492.21,672.63-536.04,655.81-579.87z M749.82-625.73c-8.75,24.75-17.04,48.17-25.55,72.25
							c-22.42-12.21-44.18-24.06-67.2-36.6C688.32-602.09,718.28-613.61,749.82-625.73z"/>
						<path class="st1" d="M790.24-17.34c2.94-1.23,5.5-2.31,8.4-3.53c0.21,3.94,1.39,7.76-3.88,9.24c1.61,3.35,3.09,6.45,4.6,9.6
							c-4.84,2.06-7.19,0.2-9.33-3.15c-3.56-5.58-7.47-10.95-11.48-16.76c-11.19,5.33-22.32,10.13-32.96,15.86
							c-7.81,4.21-15.72,5.87-25.4,4.42c13.37-6.42,26.06-12.5,39.58-18.99c-12.05-17.51-23.85-34.63-36.39-52.85
							c-1.6,5.58-2.9,9.94-4.08,14.33c-4.75,17.66-9.62,35.29-14.06,53.02c-1.19,4.74-3.37,5.91-8.3,4.31
							c7.45-27.84,14.91-55.69,22.51-84.08c26.57,7.11,52.8,14.14,79.15,21.2c0,2.27,0,4.22,0,7.01
							c-22.41-5.96-44.54-11.85-66.67-17.74c-0.23,0.34-0.46,0.68-0.69,1.02c0.84,1.33,1.63,2.7,2.53,4
							c9.91,14.37,19.93,28.67,29.67,43.16c2.04,3.04,3.65,3.28,6.81,1.73c10.57-5.16,10.63-5.02,17.33,4.6
							C788.33-19.82,789.15-18.79,790.24-17.34z"/>
						<path class="st1" d="M783.06-267.45c5.84-0.84,10.5-1.52,15.49-2.24c0,3,0,5.6,0,8.65c-3.26,0.69-6.58,1.39-10.92,2.31
							c5.54,4.9,15.53,6.37,10.21,17.06c-9.61-5.77-19.58-11.76-30.01-18.02c10.14-16.89,20.03-33.35,29.92-49.8
							c0.33,6.73,2.89,13.36-1.42,19.8C791.73-282.85,787.84-275.55,783.06-267.45z"/>
						<path class="st1" d="M579.54-0.22c-3.69-1.35-7.39-2.7-11.23-4.1c-0.68,3.59-3.99,3.77-8.09,2.77c0-1.19,0-2.43,0-2.78
							c-5.79,1.37-11.55,2.73-17.32,4.1c-0.22-0.63-0.45-1.27-0.67-1.9c8.36-5.84,16.71-11.68,25.56-17.87
							c4.3,6.13,8.45,12.03,12.59,17.93C580.11-1.46,579.82-0.84,579.54-0.22z"/>
						<path d="M179.61-278.74c-16.37,2.72-32.73,5.45-49.1,8.16c-8.36,1.39-16.73,2.67-25.06,4.19c-2.85,0.52-4.24-0.18-5.03-3.06
							c-1.19-4.32-2.99-8.47-4.17-12.79c-0.8-2.93-2.32-3.6-5.09-3.02c-4.39,0.91-8.85,1.48-13.24,2.41
							c-2.57,0.54-3.97-0.09-4.84-2.7c-7.86-23.64-15.81-47.25-23.72-70.88c-0.14-0.42-0.02-0.93-0.02-2.4
							c43.95,26.43,87.35,52.53,130.75,78.62C179.93-279.72,179.77-279.23,179.61-278.74z"/>
						<path d="M130.75-178.98c-8.94-26.72-17.4-52-26.17-78.21c26.93-4.47,53.34-8.86,81.24-13.49
							C167.24-239.76,149.41-210.07,130.75-178.98z"/>
						<path d="M614.31-728.82c-34.06,23.85-66.9,46.86-100.81,70.61c0.42-2.63,0.53-4.01,0.87-5.33
							c5.97-23.16,11.99-46.32,17.94-69.49c0.64-2.49,1.33-4.09,4.57-3.77c23.8,2.41,47.63,4.62,71.44,6.92
							C609.8-729.74,611.24-729.37,614.31-728.82z"/>
						<path d="M522.14-721.48c-5.51,21.31-10.78,41.69-16.47,63.72c-16.55-23.61-32.27-46.03-48.98-69.87
							C479.26-725.51,500.28-723.54,522.14-721.48z"/>
						<path d="M252.87-493.54C209.82-521.57,167.7-549,124.24-577.3c4.74-0.72,7.92-1.27,11.12-1.69
							c28.51-3.73,57.02-7.42,85.53-11.19c2.67-0.35,4.23,0.04,5.11,3.05c8.81,30.14,17.77,60.24,26.67,90.36
							C252.84-496.18,252.76-495.51,252.87-493.54z"/>
						<path d="M189.24-674.11c42.12,27.42,84.24,54.85,126.36,82.27c-0.07,0.42-0.13,0.84-0.2,1.26c-4.65,0.64-9.3,1.3-13.96,1.91
							c-19.95,2.57-39.92,5.02-59.84,7.79c-3.69,0.51-5.06-0.64-5.8-3.98c-0.83-3.73-2.34-7.31-3.05-11.05
							c-0.74-3.89-2.81-4.75-6.32-3.97c-1.94,0.43-3.95,0.58-5.93,0.81c-10.02,1.16-10.01,1.15-12.82-8.34
							c-6.09-20.56-12.2-41.12-18.29-61.68c-0.41-1.4-0.72-2.82-1.08-4.24C188.63-673.58,188.93-673.84,189.24-674.11z"/>
						<path d="M120.44-585.97c19.59-30.11,38.3-58.88,57.92-89.03c7.94,26.8,15.49,52.24,23.25,78.44
							C174.59-593.04,148.32-589.61,120.44-585.97z"/>
						<path d="M262.95-493.21c-7.91-26.77-15.42-52.19-23.2-78.51c26.82-3.47,53.2-6.88,81.13-10.5
							C301.27-552.07,282.49-523.23,262.95-493.21z"/>
						<path d="M416.39-326.61c1.3-7.43,2.6-14.86,3.92-22.28c4.01-22.55,8.08-45.08,12-67.64c0.5-2.89,1.26-4.36,4.63-4.29
							c29.58,0.61,59.16,1.05,88.74,1.57c1.06,0.02,2.11,0.43,4.22,0.88c-37.97,31.19-75.2,61.78-112.43,92.36
							C417.11-326.21,416.75-326.41,416.39-326.61z"/>
						<path d="M346.8-412.57c37.13-30.51,74.26-61.01,111.39-91.52c0.37,0.18,0.74,0.35,1.11,0.53c-0.9,5.4-1.75,10.81-2.72,16.2
							c-3.23,17.98-6.61,35.94-9.66,53.95c-0.58,3.42-1.88,4.47-5.15,4.21c-3.47-0.28-7,0.12-10.46-0.25
							c-3.85-0.42-6.09,0.62-6.11,4.81c0,0.32-0.14,0.65-0.22,0.97c-1.01,4.48-0.62,10.74-3.41,12.94c-2.88,2.27-8.87,0.67-13.5,0.6
							c-18.28-0.29-36.55-0.64-54.82-0.97c-1.96-0.03-3.91,0-5.87,0C347.17-411.59,346.98-412.08,346.8-412.57z"/>
						<path d="M532.37-428.49c-26.14,0-51.34,0-77.74,0c4.68-26.18,9.15-51.21,13.9-77.74C490.36-479.64,511.25-454.2,532.37-428.49
							z"/>
						<path d="M407.27-324.08c-21.84-26.58-42.7-51.97-63.82-77.68c26.07,0,51.35,0,77.65,0
							C416.47-375.72,412.02-350.71,407.27-324.08z"/>
						<path d="M540.23-278.56c1.12,0.89,2.3,1.72,3.36,2.67c21.14,19.01,42.26,38.05,63.42,57.04c2,1.79,3.46,3.08,1.46,6.12
							c-16.15,24.6-32.12,49.32-48.16,73.99c-0.43,0.66-1.06,1.19-2.46,2.73c-6.33-48.01-12.53-95-18.73-142
							C539.49-278.19,539.86-278.37,540.23-278.56z"/>
						<path d="M665.62-150.89c-7.85-7.08-15.7-14.15-23.55-21.23c-9.25-8.35-18.36-16.86-27.81-24.97c-3.29-2.82-3.4-4.88-0.9-8.17
							c2.8-3.68,5.05-7.77,7.73-11.98c-4.11-3.73-8.18-7.14-11.84-10.94c-0.98-1.01-1.55-3.76-0.89-4.8
							c12.46-19.63,25.14-39.13,37.79-58.65c0.25-0.39,0.71-0.65,1.99-1.77c6.3,47.77,12.51,94.81,18.71,141.85
							C666.44-151.33,666.03-151.11,665.62-150.89z"/>
						<path d="M661.52-141.55c-32.07,4.23-64.15,8.46-97.73,12.89c14.38-22.19,28.05-43.26,42.08-64.9
							c19.04,17.19,37.6,33.95,56.17,50.71C661.86-142.42,661.69-141.98,661.52-141.55z"/>
						<path d="M544.35-288.08c32.05-4.23,64.1-8.46,97.83-12.92c-14.29,22.12-27.81,43.06-41.9,64.88
							c-18.96-17.05-37.63-33.83-56.3-50.62C544.1-287.19,544.23-287.64,544.35-288.08z"/>
						<path d="M292.47-171.14c0.36,7.25,0.76,14.5,1.09,21.76c1.05,23.58,2.03,47.16,3.13,70.74c0.14,3.02-0.2,4.91-3.76,5.62
							c-29.96,5.98-59.9,12.12-89.84,18.2c-0.61,0.12-1.27,0.02-3.22,0.02c30.83-39.49,61.07-78.22,91.31-116.95
							C291.61-171.56,292.04-171.35,292.47-171.14z"/>
						<path d="M381.24-111.83c-25.3,5.18-50.6,10.35-76.77,15.71c-1.15-26.56-2.27-52.39-3.46-79.9
							c27.56,21.51,54.01,42.15,80.45,62.78C381.39-112.77,381.31-112.3,381.24-111.83z"/>
						<path d="M706.26-448.38c-16.82-43.83-33.64-87.66-50.45-131.49c0.3-0.3,0.61-0.6,0.91-0.9c4,2.15,8,4.27,11.98,6.44
							c16.35,8.9,32.66,17.89,49.09,26.64c3.05,1.62,3.53,3.25,2.32,6.27c-1.85,4.59-3.36,9.32-5.11,14.24
							c5.86,3.24,11.35,6.28,17.1,9.46c-8.22,23.3-16.31,46.26-24.41,69.23C707.22-448.45,706.74-448.41,706.26-448.38z"/>
						<path d="M657.07-590.08c31.25-12.01,61.21-23.52,92.75-35.65c-8.75,24.75-17.04,48.17-25.55,72.25
							C701.84-565.69,680.09-577.54,657.07-590.08z"/>
					</g>
				</g>
			</g>
		</g>
	</g>
</pattern>
<g>
	<rect x="-24.72" y="-28" class="st2" width="1966.72" height="1135.46"/>
	<pattern  id="SVGID_1_" xlink:href="#SVGID_90_" patternTransform="matrix(1 0 0 1 -591 18614)">
	</pattern>
	<rect x="-25" y="-28" class="st3" width="1966.83" height="1136"/>
</g>
</svg>
