<?xml version="1.0" encoding="utf-8"?>
<!-- Generator: Adobe Illustrator 24.0.2, SVG Export Plug-In . SVG Version: 6.00 Build 0)  -->
<svg version="1.1" id="Layer_1" xmlns="http://www.w3.org/2000/svg" xmlns:xlink="http://www.w3.org/1999/xlink" x="0px" y="0px"
	 viewBox="0 0 1208 356" style="enable-background:new 0 0 1208 356;" xml:space="preserve">
<style type="text/css">
	.st0{fill:#0F1540;}
</style>
<path class="st0" d="M231.5,355.9h83.8V-0.4h-17.9l0.2-0.3H95.3c-14.8,0.6-27,10.9-27,28.7c0,18.1,12.4,32.7,27.7,32.7h162.6
	c7.9,0,14.8,7.6,14.3,17.2c-0.5,8.7-6.4,15.5-13.9,15.5H32c-13.6,0-25.6,11.3-27.9,26.8c-3.1,20.3,10,38.6,27.2,38.6h252
	c7.9,0,14.8,7.6,14.3,17.2c-0.5,8.7-6.4,15.5-13.9,15.5H77.9c-13.6,0-25.6,11.3-27.9,26.8c-3.1,20.6,10,38.9,27.5,38.9h137.3
	c8.8,0,15.5,9,14.1,19.2c-1.2,7.9-6.9,13.5-13.9,13.8h-23.9c-14.1,0-26,12.7-27.5,29.6c-1.7,19.7,11.5,36.1,28.2,36.1h38.7
	C230.8,356,231.1,355.9,231.5,355.9z"/>
<rect x="314.6" y="-0.4" class="st0" width="893" height="356.3"/>
</svg>
