<svg width="312" height="418" viewBox="0 0 312 418" fill="none" xmlns="http://www.w3.org/2000/svg">
<path d="M228.08 417.815H312V0.324442H294.041L294.281 0H91.7837C76.9578 0.648817 64.7648 17.3211 64.7648 37.9095C64.7648 58.8222 77.1981 75.8188 92.4945 75.8188H255.309C263.198 75.8188 270.135 84.6475 269.655 95.7585C269.174 105.885 263.198 113.728 255.79 113.728H28.4258C14.8012 113.728 2.84835 126.797 0.455779 144.779C-2.64755 168.31 10.4965 189.547 27.715 189.547H279.946C287.834 189.547 294.772 198.376 294.291 209.487C293.81 219.613 287.834 227.457 280.426 227.457H74.335C60.7104 227.457 48.7576 240.526 46.365 258.507C43.2617 282.363 56.4058 303.611 73.8545 303.611H211.322C220.171 303.611 226.859 314.074 225.427 325.833C224.226 334.986 218.49 341.521 211.562 341.845H187.657C173.551 341.845 161.599 356.548 160.167 376.163C158.495 399.045 171.639 418 188.377 418H227.119C227.409 417.896 227.73 417.815 228.08 417.815Z" fill="#0E153F"/>
</svg>
