<?xml version="1.0" encoding="utf-8"?>
<!-- Generator: Adobe Illustrator 24.0.2, SVG Export Plug-In . SVG Version: 6.00 Build 0)  -->
<svg version="1.1" id="Layer_1" xmlns="http://www.w3.org/2000/svg" xmlns:xlink="http://www.w3.org/1999/xlink" x="0px" y="0px"
	 viewBox="0 0 217.4 248.9" style="enable-background:new 0 0 217.4 248.9;" xml:space="preserve">
<style type="text/css">
	.st0{fill:#0B1030;}
</style>
<path class="st0" d="M159,248.8h58.5V0.2h-12.5l0.2-0.2H64C53.6,0.4,45.1,7.6,45.1,20c0,12.6,8.7,22.8,19.3,22.8h113.5
	c5.5,0,10.3,5.3,10,12c-0.3,6.1-4.5,10.8-9.7,10.8H19.8c-9.5,0-17.8,7.9-19.5,18.7c-2.2,14.2,7,27,19,27h175.8c5.5,0,10.3,5.3,10,12
	c-0.3,6.1-4.5,10.8-9.7,10.8H51.8c-9.5,0-17.8,7.9-19.5,18.7c-2.2,14.4,7,27.2,19.2,27.2h95.8c6.2,0,10.8,6.3,9.8,13.4
	c-0.8,5.5-4.8,9.4-9.7,9.6h-16.7c-9.8,0-18.2,8.9-19.2,20.7c-1.2,13.8,8,25.2,19.7,25.2h27C158.5,248.8,158.7,248.8,159,248.8z"/>
</svg>
