<?xml version="1.0" encoding="utf-8"?>
<!-- Generator: Adobe Illustrator 24.0.2, SVG Export Plug-In . SVG Version: 6.00 Build 0)  -->
<svg version="1.1" id="Layer_1" xmlns="http://www.w3.org/2000/svg" xmlns:xlink="http://www.w3.org/1999/xlink" x="0px" y="0px"
	 viewBox="0 0 1920 1080" style="enable-background:new 0 0 1920 1080;" xml:space="preserve">
<style type="text/css">
	.st0{fill:none;}
	.st1{fill:#FFFFFF;stroke:#FFFFFF;stroke-width:1.6548;stroke-miterlimit:10;}
	.st2{fill:#FFFFFF;stroke:#666666;stroke-width:1.6548;stroke-miterlimit:10;}
	.st3{fill:#0F1540;}
	.st4{opacity:0.3;fill:url(#SVGID_1_);stroke:#000000;stroke-width:1.0036;stroke-miterlimit:10;}
</style>
<pattern  width="290.77" height="277" patternUnits="userSpaceOnUse" id="black-mixed-x" viewBox="0 -277 290.77 277" style="overflow:visible;">
	<g>
		<rect y="-277" class="st0" width="290.77" height="277"/>
		<rect y="-277" width="290.77" height="277"/>
		<g>
			<line class="st1" x1="88.28" y1="-248.82" x2="94.9" y2="-242.2"/>
			<line class="st1" x1="88.28" y1="-242.2" x2="94.9" y2="-248.82"/>
			<line class="st1" x1="88.28" y1="-177.48" x2="94.9" y2="-170.86"/>
			<line class="st1" x1="88.28" y1="-170.86" x2="94.9" y2="-177.48"/>
			<line class="st1" x1="88.28" y1="-106.14" x2="94.9" y2="-99.52"/>
			<line class="st1" x1="88.28" y1="-99.52" x2="94.9" y2="-106.14"/>
			<line class="st1" x1="88.28" y1="-34.8" x2="94.9" y2="-28.18"/>
			<line class="st1" x1="88.28" y1="-28.18" x2="94.9" y2="-34.8"/>
		</g>
		<g>
			<line class="st1" x1="16.56" y1="-248.82" x2="23.18" y2="-242.2"/>
			<line class="st1" x1="16.56" y1="-242.2" x2="23.18" y2="-248.82"/>
			<line class="st1" x1="16.56" y1="-177.48" x2="23.18" y2="-170.86"/>
			<line class="st1" x1="16.56" y1="-170.86" x2="23.18" y2="-177.48"/>
			<line class="st1" x1="16.56" y1="-106.14" x2="23.18" y2="-99.52"/>
			<line class="st1" x1="16.56" y1="-99.52" x2="23.18" y2="-106.14"/>
			<line class="st1" x1="16.56" y1="-34.8" x2="23.18" y2="-28.18"/>
			<line class="st1" x1="16.56" y1="-28.18" x2="23.18" y2="-34.8"/>
		</g>
		<g>
			<line class="st2" x1="52.42" y1="-248.82" x2="59.04" y2="-242.2"/>
			<line class="st2" x1="52.42" y1="-242.2" x2="59.04" y2="-248.82"/>
			<line class="st2" x1="52.42" y1="-177.48" x2="59.04" y2="-170.86"/>
			<line class="st2" x1="52.42" y1="-170.86" x2="59.04" y2="-177.48"/>
			<line class="st2" x1="52.42" y1="-106.14" x2="59.04" y2="-99.52"/>
			<line class="st2" x1="52.42" y1="-99.52" x2="59.04" y2="-106.14"/>
			<line class="st2" x1="52.42" y1="-34.8" x2="59.04" y2="-28.18"/>
			<line class="st2" x1="52.42" y1="-28.18" x2="59.04" y2="-34.8"/>
		</g>
		<g>
			<line class="st2" x1="124.14" y1="-248.82" x2="130.76" y2="-242.2"/>
			<line class="st2" x1="124.14" y1="-242.2" x2="130.76" y2="-248.82"/>
			<line class="st2" x1="124.14" y1="-177.48" x2="130.76" y2="-170.86"/>
			<line class="st2" x1="124.14" y1="-170.86" x2="130.76" y2="-177.48"/>
			<line class="st2" x1="124.14" y1="-106.14" x2="130.76" y2="-99.52"/>
			<line class="st2" x1="124.14" y1="-99.52" x2="130.76" y2="-106.14"/>
			<line class="st2" x1="124.14" y1="-34.8" x2="130.76" y2="-28.18"/>
			<line class="st2" x1="124.14" y1="-28.18" x2="130.76" y2="-34.8"/>
		</g>
		<g>
			<line class="st2" x1="195.87" y1="-248.82" x2="202.48" y2="-242.2"/>
			<line class="st2" x1="195.87" y1="-242.2" x2="202.48" y2="-248.82"/>
			<line class="st2" x1="195.87" y1="-177.48" x2="202.48" y2="-170.86"/>
			<line class="st2" x1="195.87" y1="-170.86" x2="202.48" y2="-177.48"/>
			<line class="st2" x1="195.87" y1="-106.14" x2="202.48" y2="-99.52"/>
			<line class="st2" x1="195.87" y1="-99.52" x2="202.48" y2="-106.14"/>
			<line class="st2" x1="195.87" y1="-34.8" x2="202.48" y2="-28.18"/>
			<line class="st2" x1="195.87" y1="-28.18" x2="202.48" y2="-34.8"/>
		</g>
		<g>
			<line class="st1" x1="160" y1="-248.82" x2="166.62" y2="-242.2"/>
			<line class="st1" x1="160" y1="-242.2" x2="166.62" y2="-248.82"/>
			<line class="st1" x1="160" y1="-177.48" x2="166.62" y2="-170.86"/>
			<line class="st1" x1="160" y1="-170.86" x2="166.62" y2="-177.48"/>
			<line class="st1" x1="160" y1="-106.14" x2="166.62" y2="-99.52"/>
			<line class="st1" x1="160" y1="-99.52" x2="166.62" y2="-106.14"/>
			<line class="st1" x1="160" y1="-34.8" x2="166.62" y2="-28.18"/>
			<line class="st1" x1="160" y1="-28.18" x2="166.62" y2="-34.8"/>
		</g>
		<g>
			<line class="st1" x1="231.73" y1="-248.82" x2="238.35" y2="-242.2"/>
			<line class="st1" x1="231.73" y1="-242.2" x2="238.35" y2="-248.82"/>
			<line class="st1" x1="231.73" y1="-177.48" x2="238.35" y2="-170.86"/>
			<line class="st1" x1="231.73" y1="-170.86" x2="238.35" y2="-177.48"/>
			<line class="st1" x1="231.73" y1="-106.14" x2="238.35" y2="-99.52"/>
			<line class="st1" x1="231.73" y1="-99.52" x2="238.35" y2="-106.14"/>
			<line class="st1" x1="231.73" y1="-34.8" x2="238.35" y2="-28.18"/>
			<line class="st1" x1="231.73" y1="-28.18" x2="238.35" y2="-34.8"/>
		</g>
		<g>
			<line class="st2" x1="267.59" y1="-248.82" x2="274.21" y2="-242.2"/>
			<line class="st2" x1="267.59" y1="-242.2" x2="274.21" y2="-248.82"/>
			<line class="st2" x1="267.59" y1="-177.48" x2="274.21" y2="-170.86"/>
			<line class="st2" x1="267.59" y1="-170.86" x2="274.21" y2="-177.48"/>
			<line class="st2" x1="267.59" y1="-106.14" x2="274.21" y2="-99.52"/>
			<line class="st2" x1="267.59" y1="-99.52" x2="274.21" y2="-106.14"/>
			<line class="st2" x1="267.59" y1="-34.8" x2="274.21" y2="-28.18"/>
			<line class="st2" x1="267.59" y1="-28.18" x2="274.21" y2="-34.8"/>
		</g>
	</g>
</pattern>
<rect x="-6.69" y="-50.81" class="st3" width="1935" height="1184"/>
<pattern  id="SVGID_1_" xlink:href="#black-mixed-x" patternTransform="matrix(1.0073 0 0 1 -5.6805 -391.8068)">
</pattern>
<rect x="-7.19" y="-53.31" class="st4" width="1935" height="1184"/>
<g>
</g>
<g>
</g>
<g>
</g>
<g>
</g>
<g>
</g>
<g>
</g>
<g>
</g>
<g>
</g>
<g>
</g>
<g>
</g>
<g>
</g>
<g>
</g>
<g>
</g>
<g>
</g>
<g>
</g>
</svg>
