<svg width="770" height="950" viewBox="0 0 770 950" fill="none" xmlns="http://www.w3.org/2000/svg">
<path d="M240.533 792.808C193.901 750.765 180.289 662.425 199.717 598.426C233.404 638.776 280.079 651.558 328.425 658.773C403.062 669.908 476.362 665.743 545.695 632.095C553.627 628.244 560.957 623.121 569.624 617.933C576.13 636.549 577.822 655.344 575.551 674.472C570.025 721.058 546.521 757.044 509.135 784.324C494.186 795.234 478.367 804.988 462.927 815.277C415.494 846.897 402.661 883.975 420.485 937.91C420.908 939.223 421.287 940.537 422.245 943.743C398.027 933.055 380.337 917.49 366.858 897.024C352.621 875.424 345.848 851.53 345.492 825.676C345.314 813.094 345.314 800.402 343.598 787.997C339.41 757.757 325.017 744.218 297.903 743.438C270.076 742.637 248.064 759.606 242.226 786.327C241.781 788.376 241.135 790.402 240.489 792.785L240.533 792.808Z" fill="white"/>
<path d="M6.01562 618.019C6.01562 618.019 133.522 556.09 261.384 556.09L357.788 258.627C361.396 244.241 371.935 234.466 383.832 234.466C395.729 234.466 406.268 244.241 409.877 258.627L506.28 556.09C657.715 556.09 761.648 618.019 761.648 618.019C761.648 618.019 545.069 29.773 544.645 28.5928C538.43 11.2011 527.936 0 513.788 0H253.898C239.75 0 229.68 11.2011 223.04 28.5928C222.572 29.7508 6.01562 618.019 6.01562 618.019Z" fill="white"/>
</svg>
